<?xml version="1.0" standalone="no"?>
<!DOCTYPE svg PUBLIC "-//W3C//DTD SVG 20010904//EN"
 "http://www.w3.org/TR/2001/REC-SVG-20010904/DTD/svg10.dtd">
<svg version="1.0" xmlns="http://www.w3.org/2000/svg"
 width="300.000000pt" height="163.000000pt" viewBox="0 0 300.000000 163.000000"
 preserveAspectRatio="xMidYMid meet">
 
<g transform="translate(0.000000,163.000000) scale(0.050000,-0.050000)"
fill="#000000" stroke="none">
<path d="M2780 2781 c0 -35 -10 -105 -23 -155 l-23 -92 -37 45 c-20 25 -37 62
-37 83 0 21 -8 38 -17 38 -9 0 -13 -45 -8 -100 6 -55 6 -100 1 -100 -18 0
-136 202 -136 231 0 30 -24 38 -46 16 -8 -7 -5 -23 5 -36 34 -41 143 -357 132
-385 -6 -16 17 -37 60 -55 86 -36 87 -67 10 -239 -57 -127 -85 -155 -111 -112
-7 11 -47 20 -88 20 -210 0 -250 -235 -52 -300 39 -13 70 -29 69 -37 -2 -47
-117 -237 -155 -255 l-46 -23 46 -12 c70 -19 256 -15 256 5 0 10 -22 23 -50
30 -59 15 -62 48 -17 166 43 113 183 130 236 28 37 -72 151 -119 151 -62 0 11
-12 20 -27 20 -27 0 -126 95 -111 106 17 14 161 94 167 94 19 0 114 -303 104
-329 -7 -17 -36 -31 -66 -31 -29 0 -48 -5 -42 -12 15 -14 395 -22 395 -8 0 5
-25 24 -55 41 -44 25 -90 112 -229 430 -188 430 -193 460 -74 490 26 7 45 25
42 39 -9 37 117 380 138 380 10 0 18 14 18 30 0 17 -13 30 -30 30 -16 0 -30
-13 -30 -30 0 -16 -29 -77 -65 -135 l-65 -105 -6 66 c-4 37 3 78 14 92 12 14
16 32 8 39 -22 22 -46 14 -46 -16 0 -39 -43 -131 -61 -131 -21 0 -65 195 -52
229 6 15 -2 39 -18 52 -24 20 -29 13 -29 -40z m66 -881 c77 -185 77 -184 -29
-229 l-74 -30 -52 92 -52 93 56 136 c64 157 60 159 151 -62z m-308 -35 l42
-35 -45 -95 -45 -95 -65 40 c-61 37 -76 68 -65 140 11 83 104 106 178 45z
m131 -163 c28 -54 27 -58 -12 -68 -73 -20 -95 1 -70 67 27 74 44 74 82 1z"/>
<path d="M4765 2307 c-25 -5 -77 -39 -115 -76 -157 -148 -67 -360 221 -521
225 -126 262 -290 79 -350 -137 -45 -246 23 -307 193 -19 53 -43 95 -54 92
-14 -4 -22 -248 -10 -325 5 -36 435 -19 496 19 234 145 190 351 -115 534 -209
127 -240 159 -240 249 0 202 281 184 354 -22 43 -122 98 -139 79 -25 -7 41
-13 107 -13 147 0 66 -4 71 -65 73 -36 0 -110 6 -165 11 -55 6 -120 6 -145 1z"/>
<path d="M330 2280 c7 -11 28 -20 47 -20 77 0 83 -35 83 -449 -1 -431 -2 -441
-85 -462 -132 -33 -28 -47 354 -48 l409 -1 23 82 c12 46 30 104 40 130 30 80
-16 74 -69 -8 -59 -94 -120 -121 -292 -130 -233 -13 -220 -39 -220 432 0 430
5 454 94 454 25 0 46 9 46 20 0 12 -87 20 -221 20 -143 0 -217 -7 -209 -20z"/>
<path d="M1260 2283 c0 -10 26 -23 57 -29 123 -25 123 -851 0 -903 -98 -41
-46 -48 361 -50 l393 -2 36 133 c35 133 28 193 -14 118 -62 -107 -148 -170
-236 -172 -48 -2 -118 -4 -157 -6 -148 -8 -155 2 -152 221 l2 197 110 6 c182
11 234 -7 260 -87 39 -117 60 -77 60 111 0 184 -22 229 -62 125 -29 -77 -49
-84 -224 -85 l-156 0 6 185 6 185 175 6 c197 6 249 -12 279 -98 31 -91 56 -68
56 52 l0 110 -400 0 c-220 0 -400 -8 -400 -17z"/>
<path d="M3420 2280 c0 -11 16 -20 36 -20 111 0 118 -28 110 -434 -10 -459
-10 -459 -86 -476 -116 -26 -58 -50 120 -50 184 0 226 20 121 57 -79 27 -83
55 -77 428 l6 314 330 -412 330 -413 14 298 c8 164 10 328 4 365 -23 143 12
286 75 310 99 38 63 53 -123 53 -107 0 -180 -8 -180 -20 0 -11 18 -20 40 -20
95 0 111 -49 117 -380 4 -188 -1 -302 -12 -290 -10 11 -141 175 -292 365
l-273 345 -130 0 c-73 0 -130 -9 -130 -20z"/>
<path d="M2067 1037 c-93 -46 -114 -192 -38 -268 56 -55 143 -64 202 -20 35
26 31 27 -49 17 -103 -14 -142 21 -142 126 0 117 125 175 186 87 30 -43 65 -9
37 36 -20 32 -147 47 -196 22z"/>
<path d="M2970 1040 l-100 -10 0 -155 c0 -142 3 -155 41 -155 35 0 39 10 32
83 -8 82 -8 82 55 73 50 -7 62 -2 62 28 0 31 -7 34 -39 17 -62 -34 -81 -25
-81 39 0 65 84 88 136 36 19 -19 24 -17 24 9 0 44 -13 48 -130 35z"/>
<path d="M3380 1042 l-90 -12 -1 -155 -1 -155 114 0 c87 0 117 8 126 33 17 43
-2 61 -32 31 -63 -63 -190 4 -146 76 18 28 105 25 117 -5 5 -14 11 0 11 30 2
49 -2 53 -35 32 -53 -33 -107 -7 -99 48 7 52 110 76 138 32 9 -14 22 -20 29
-12 17 17 -4 76 -25 72 -9 -2 -56 -9 -106 -15z"/>
<path d="M2470 896 c-33 -79 -63 -151 -67 -160 -3 -9 7 -16 24 -16 18 0 33 22
37 55 10 86 110 91 142 6 14 -38 37 -61 60 -61 21 0 34 7 30 15 -23 44 -111
240 -122 270 -22 60 -42 39 -104 -109z m110 -20 c0 -9 -18 -16 -40 -16 -42 0
-48 15 -27 71 14 35 67 -9 67 -55z"/>
</g>
</svg>
